<?xml version="1.0" encoding="utf-8"?>
<!-- Generator: Adobe Illustrator 23.0.1, SVG Export Plug-In . SVG Version: 6.00 Build 0)  -->
<svg version="1.1" id="katman_1" xmlns="http://www.w3.org/2000/svg" xmlns:xlink="http://www.w3.org/1999/xlink" x="0px" y="0px"
	 viewBox="0 0 78.8 69.1" style="enable-background:new 0 0 78.8 69.1;" xml:space="preserve">
<style type="text/css">
	.st0{fill:url(#SVGID_1_);}
	.st1{fill:url(#SVGID_2_);}
</style>
<g>
	<g>
		<linearGradient id="SVGID_1_" gradientUnits="userSpaceOnUse" x1="35.5204" y1="64.2739" x2="43.2868" y2="4.8304">
			<stop  offset="0" style="stop-color:#00EEF4"/>
			<stop  offset="1" style="stop-color:#0F6996"/>
		</linearGradient>
		<path class="st0" d="M63.4,12.4L46.4,41c-0.4,0.7-0.7,1.4-0.7,1.8c0,1,0.4,3.7,1.5,5.5c1.1,1.8,2.5,2.3,4,2.3c0.2,0,0.3,0,0.5,0
			l-1.6,6.1c-0.4,0.1-3.6,0.1-3.6,0.1h-4.2c-2.7,0-5.7,0-8.6,0c-5.7,0-10.8,0-10.8,0h-7.7l17.1-28.6c0.4-0.7,0.7-1.4,0.7-1.8
			c0-1-0.4-3.7-1.5-5.5c-1.1-1.8-2.5-2.3-4-2.3c-0.2,0-0.3,0-0.5,0l1.6-6.1c0.3,0,0.6,0,1-0.1l0,0H40l2.5,16.2
			c0.2,1.8,0.6,4,0.8,6.4h0.3c0.9-2.1,1.9-4.5,3-6.5l8.5-16.1H63.4 M37.8,50l-1.5-9.5c-0.2-1.8-0.6-4-0.8-6.4h-0.3
			c-0.9,2.1-1.9,4.5-3,6.5l-4.8,9.1L37.8,50 M70.5,8.4h-7h-8.3h-2.4l-1.1,2.1l-6,11.5L44,11.8l-0.5-3.4H40H29.6h-5.3l0.6,2.3
			l-0.2,0.8l-1.6,6.1l-1.4,5.4l5.5-0.4c0.1,0,0.2,0,0.2,0c0.2,0,0.3,0,0.3,0c0,0,0.1,0.1,0.2,0.3l0,0l0,0c0.5,0.8,0.8,2.2,0.9,3
			c0,0.1-0.1,0.1-0.1,0.2l-17,28.5l-3.6,6.1h7H23c0,0,5,0,10.8,0c2.9,0,5.9,0,8.6,0h4.2c3.5,0,3.9-0.1,4.1-0.1l2.6-0.4l0.7-2.6
			l1.6-6.1l1.4-5.4l-5.5,0.4c-0.1,0-0.2,0-0.2,0c-0.2,0-0.3,0-0.3,0c0,0-0.1-0.1-0.2-0.3l0,0l0,0c-0.5-0.8-0.8-2.2-0.9-3
			c0-0.1,0.1-0.1,0.1-0.2l17-28.5L70.5,8.4L70.5,8.4z"/>
	</g>
	<g>
		<linearGradient id="SVGID_2_" gradientUnits="userSpaceOnUse" x1="35.5204" y1="64.2739" x2="43.2868" y2="4.8304">
			<stop  offset="0" style="stop-color:#00EEF4"/>
			<stop  offset="1" style="stop-color:#0F6996"/>
		</linearGradient>
		<path class="st1" d="M63.4,12.4L46.4,41c-0.4,0.7-0.7,1.4-0.7,1.8c0,1,0.4,3.7,1.5,5.5c1.1,1.8,2.5,2.3,4,2.3c0.2,0,0.3,0,0.5,0
			l-1.6,6.1c-0.4,0.1-3.6,0.1-3.6,0.1h-4.2c-2.7,0-5.7,0-8.6,0c-5.7,0-10.8,0-10.8,0h-7.7l17.1-28.6c0.4-0.7,0.7-1.4,0.7-1.8
			c0-1-0.4-3.7-1.5-5.5c-1.1-1.8-2.5-2.3-4-2.3c-0.2,0-0.3,0-0.5,0l1.6-6.1c0.3,0,0.6,0,1-0.1l0,0H40l2.5,16.2
			c0.2,1.8,0.6,4,0.8,6.4h0.3c0.9-2.1,1.9-4.5,3-6.5l8.5-16.1H63.4 M37.8,50l-1.5-9.5c-0.2-1.8-0.6-4-0.8-6.4h-0.3
			c-0.9,2.1-1.9,4.5-3,6.5l-4.8,9.1L37.8,50 M70.5,8.4h-7h-8.3h-2.4l-1.1,2.1l-6,11.5L44,11.8l-0.5-3.4H40H29.6h-5.3l0.6,2.3
			l-0.2,0.8l-1.6,6.1l-1.4,5.4l5.5-0.4c0.1,0,0.2,0,0.2,0c0.2,0,0.3,0,0.3,0c0,0,0.1,0.1,0.2,0.3l0,0l0,0c0.5,0.8,0.8,2.2,0.9,3
			c0,0.1-0.1,0.1-0.1,0.2l-17,28.5l-3.6,6.1h7H23c0,0,5,0,10.8,0c2.9,0,5.9,0,8.6,0h4.2c3.5,0,3.9-0.1,4.1-0.1l2.6-0.4l0.7-2.6
			l1.6-6.1l1.4-5.4l-5.5,0.4c-0.1,0-0.2,0-0.2,0c-0.2,0-0.3,0-0.3,0c0,0-0.1-0.1-0.2-0.3l0,0l0,0c-0.5-0.8-0.8-2.2-0.9-3
			c0-0.1,0.1-0.1,0.1-0.2l17-28.5L70.5,8.4L70.5,8.4z"/>
	</g>
</g>
</svg>
